<svg class="scribble" xmlns="http://www.w3.org/2000/svg" width="250" viewBox="350 380 233 55"><path d="M331.24 424.39h.25q.25 0 3.01-1.76 2.77-1.75 10.3-5.26 7.54-3.51 18.09-8.03 10.55-4.51 24.11-10.03 13.57-5.51 24.87-9.78 11.31-4.26 17.34-5.76 6.02-1.51 6.53-1.51.5 0-2.01 1.76-2.51 1.75-8.04 6.27-5.53 4.51-11.81 10.28t-10.55 11.03q-4.27 5.27-5.52 8.28-1.26 3.01-1.01 4.01t2.26 1 7.29-2q5.27-2.01 12.81-5.02 7.53-3.01 15.82-6.02t16.83-5.51q8.54-2.51 16.58-3.77 8.04-1.25 10.8-1.25 2.77 0 2.52 1.5-.26 1.51-4.78 5.52t-10.55 8.53q-6.03 4.51-10.55 8.27t-5.77 5.27q-1.26 1.5-1.01 1.5t3.27-.75q3.01-.75 10.3-3.51 7.28-2.76 15.82-6.02t16.83-5.77q8.29-2.5 14.32-4.01 6.03-1.5 6.78-1.5.76 0 0 .75-.75.75-4.02 3.76-3.26 3.01-5.78 5.77-2.51 2.76-2.51 3.26t2.51.75q2.52.25 10.3-2.26 7.79-2.5 18.34-6.01t21.35-7.78q10.81-4.26 18.34-7.52l7.54-3.26" fill="none" stroke="#d00" stroke-width="3"/></svg>